<?xml version="1.0" encoding="UTF-8" standalone="no"?>
<svg
   version="1.0"
   width="300pt"
   height="309pt"
   viewBox="0 0 300 309"
   preserveAspectRatio="xMidYMid"
   id="svg12"
   sodipodi:docname="Bunny Cat SVG Draft.svg"
   inkscape:export-filename="Bunny Cat SVG.svg"
   inkscape:export-xdpi="96"
   inkscape:export-ydpi="96"
   xmlns:inkscape="http://www.inkscape.org/namespaces/inkscape"
   xmlns:sodipodi="http://sodipodi.sourceforge.net/DTD/sodipodi-0.dtd"
   xmlns="http://www.w3.org/2000/svg"
   xmlns:svg="http://www.w3.org/2000/svg">
  <defs
     id="defs12" />
  <sodipodi:namedview
     id="namedview12"
     pagecolor="#ffffff"
     bordercolor="#000000"
     borderopacity="0.25"
     inkscape:showpageshadow="2"
     inkscape:pageopacity="0.0"
     inkscape:pagecheckerboard="0"
     inkscape:deskcolor="#d1d1d1"
     inkscape:document-units="pt"
     inkscape:export-bgcolor="#ffffff00" />
  <metadata
     id="metadata1">&#10;Created by potrace 1.10, written by Peter Selinger 2001-2011&#10;</metadata>
  <g
     transform="matrix(0.1,0,0,-0.1,-17.386189,302.1509)"
     fill="#000000"
     stroke="none"
     id="g12">
    <path
       d="m 1279,2608 c -18,-43 -23,-76 -27,-175 -2,-69 1,-150 7,-188 10,-56 50,-188 75,-246 10,-24 -75,-113 -129,-136 -25,-10 -44,-22 -42,-27 8,-25 75,-66 117,-71 109,-13 172,-28 177,-42 9,-23 -1,-24 -89,-10 -72,11 -91,11 -126,-1 -49,-16 -53,-36 -12,-57 27,-14 37,-14 122,5 51,11 93,20 94,20 1,0 4,-6 7,-14 4,-10 -15,-22 -69,-42 -41,-14 -74,-30 -74,-35 0,-15 128,-100 187,-124 119,-48 221,-42 345,21 80,41 160,124 118,124 -27,0 -120,43 -120,56 0,17 10,17 85,-1 74,-18 125,-18 147,-2 29,22 24,37 -17,55 -35,16 -46,17 -81,6 -67,-20 -128,-22 -132,-4 -3,15 65,34 167,45 32,4 114,46 126,64 3,5 -19,20 -48,34 -40,18 -61,36 -86,73 -17,27 -30,56 -27,64 3,8 17,47 31,87 14,39 30,107 36,150 17,120 -4,366 -36,409 -12,17 -14,16 -39,-3 -103,-81 -192,-263 -215,-436 -3,-26 -9,-48 -13,-47 -5,0 -45,0 -91,0 h -83 l -18,78 c -24,109 -54,187 -99,263 -47,79 -113,159 -132,159 -7,0 -23,-24 -36,-52 z m 109,-155 c 17,-27 40,-73 52,-103 26,-67 53,-201 43,-210 -52,-43 -95,-70 -103,-65 -5,3 -19,36 -31,73 -37,116 -37,352 0,352 5,0 23,-21 39,-47 z m 579,20 c 12,-42 8,-211 -5,-272 -7,-30 -21,-74 -32,-99 l -20,-44 -39,35 c -21,19 -44,36 -51,39 -15,5 7,123 39,208 26,68 78,160 91,160 5,0 13,-12 17,-27 z m -442,-568 c 34,-33 33,-77 -2,-105 -68,-53 -154,49 -93,110 27,27 66,25 95,-5 z m 332,3 c 36,-34 27,-94 -18,-119 -40,-21 -99,24 -99,77 0,23 46,64 71,64 13,0 33,-10 46,-22 z m -142,-158 c 4,-6 -5,-24 -19,-41 -14,-17 -26,-37 -26,-44 0,-24 31,-45 66,-45 28,0 35,-4 32,-17 -5,-29 -55,-40 -89,-21 -27,16 -32,16 -63,1 -45,-21 -86,-11 -86,21 0,19 4,22 25,18 27,-5 65,21 65,43 0,7 -9,24 -20,38 -36,46 -28,57 44,57 36,0 68,-5 71,-10 z"
       id="path1" />
    <path
       d="m 1518,2643 c -38,-2 -68,-5 -68,-7 0,-2 20,-34 45,-72 25,-38 48,-78 51,-90 5,-20 12,-21 109,-20 96,1 104,3 109,21 3,12 24,49 46,84 23,35 38,66 35,69 -16,17 -163,23 -327,15 z"
       id="path2" />
    <path
       d="M 1130,2546 C 770,2396 507,2109 381,1732 299,1485 299,1167 382,925 426,795 512,632 590,532 825,228 1159,48 1557,10 c 228,-21 494,31 708,138 298,149 529,412 656,748 99.4508,256.039 93,583 3,853 -31,91 -101,232 -156,314 -52,78 -139,186 -170,211 -13,11 -48,41 -78,66 -103,88 -288,195 -389,225 -23,7 -24,6 -18,-31 4,-22 7,-68 7,-104 v -65 l 83,-42 c 244,-126 442,-351 536,-609 49,-134 65,-233 66,-394 0,-127 -4,-159 -29,-255 C 2645,552 2189,198 1660,199 1207,199 804,448 614,845 c -149,311 -149,653 1,960 108,222 251,378 452,493 50,29 95,52 100,52 6,0 13,39 16,88 3,48 9,97 13,110 8,27 3,27 -66,-2 z"
       id="path3"
       sodipodi:nodetypes="cccccscccccccscccccccccsccc" />
    <path
       d="m 1139,2171 c -115,-67 -240,-184 -312,-293 -59,-88 -123,-236 -146,-334 -31,-136 -30,-327 4,-451 45,-168 126,-309 251,-437 200,-204 508,-322 787,-302 444,33 817,351 915,781 22,97 21,288 -1,385 -43,181 -130,347 -255,481 -93,101 -266,218 -277,187 -2,-7 -12,-47 -22,-89 l -19,-77 46,-28 c 62,-40 167,-145 224,-227 118,-166 162,-382 121,-594 -21,-107 -106,-278 -179,-359 -106,-118 -259,-212 -413,-256 -65,-18 -102,-22 -218,-21 -128,1 -148,4 -234,32 -343,114 -571,414 -571,751 0,238 108,464 301,630 38,33 77,64 88,69 20,11 20,12 1,54 -10,23 -22,59 -25,80 -4,20 -10,39 -14,41 -3,2 -26,-8 -52,-23 z"
       id="path4" />
    <path
       d="m 2169,1596 c -46,-32 -69,-80 -69,-148 0,-45 8,-70 50,-152 47,-92 59.3136,-121.6271 59.3136,-191.6271 0,-41 -8.7255,-69.0983 -15.7255,-81.0983 C 2187.5881,1011.2746 2176,976 2174,940 c -1,-36 -9,-85 -18,-109 -9,-24 -15,-46 -13,-47 2,-2 26,17 55,42 34,30 62,67 84,112 42.3188,70.975 68.8572,163.9555 33,277 l -47,92 c -33,63 -48,104 -48,131 0,50 26,75 72,71 18,-2 39,0 46,5 22,13 13,53 -19,80 -41,35 -101,35 -150,2 z"
       id="path5"
       sodipodi:nodetypes="cscsccscccccscccc" />
    <path
       d="m 1084,1493 c -14,-48 -31,-67 -71,-81 -24,-7 -43,-17 -43,-20 0,-4 21,-14 47,-22 42,-13 48,-20 61,-58 16,-48 26,-46 39,8 8,31 15,37 56,49 53,16 59,28 20,37 -48,11 -72,32 -79,69 -7,38 -21,46 -30,18 z"
       id="path6" />
    <path
       d="m 1346,1438 c -3,-13 -9,-57 -12,-98 -8,-94 12,-201 61,-326 46,-115 105,-330 102,-369 -2,-30 -1,-30 54,-33 l 57,-3 7,56 c 6,51 2,154 -11,298 l -5,57 h 44 43 l -4,-206 -5,-205 63,3 63,3 2,50 c 3,59 35,172 100,350 45,121 48,138 53,245 2,70 0,132 -7,157 l -12,42 -45,-34 c -25,-19 -76,-44 -114,-56 l -68,-20 15,-30 c 35,-70 -43,-162 -109,-128 -55,28 -74,91 -43,136 15,21 14,23 -12,28 -59,13 -116,38 -159,71 -24,19 -46,34 -48,34 -2,0 -6,-10 -10,-22 z"
       id="path7" />
    <path
       d="m 1624,1295 c -9,-23 3,-45 25,-45 25,0 34,14 26,40 -7,23 -43,27 -51,5 z"
       id="path8" />
    <path
       d="m 1244,1105 c -39,-30 -64,-90 -64,-153 0,-59 12,-102 45,-157 l 25,-44 37,24 c 20,14 50,25 69,25 44,0 44,9 -5,151 -61,175 -63,179 -69,179 -4,0 -21,-11 -38,-25 z"
       id="path9" />
    <path
       d="m 2007,1123 c -6,-9 -107,-308 -107,-315 0,-3 19,-8 42,-11 22,-3 54,-15 69,-26 l 28,-21 24,43 c 52,90 60,181 23,260 -19,38 -71,84 -79,70 z"
       id="path10" />
    <path
       d="m 1310,715 c -13,-14 -22,-27 -19,-29 10,-9 122,-46 126,-42 3,3 8,25 10,51 l 6,45 h -50 c -40,0 -54,-5 -73,-25 z"
       id="path11" />
    <path
       d="m 1874,715 c -8,-32 3,-75 19,-75 6,1 36,11 66,24 l 54,24 -26,26 c -19,19 -36,26 -66,26 -35,0 -42,-4 -47,-25 z"
       id="path12" />
  </g>
</svg>
